<svg width="58" height="58" viewBox="0 0 58 58" fill="none" xmlns="http://www.w3.org/2000/svg">
<path d="M15 31H43" stroke="#A3A3A0" stroke-width="2" stroke-miterlimit="10" stroke-linecap="square"/>
<path d="M9 57V53" stroke="#A3A3A0" stroke-width="2" stroke-miterlimit="10" stroke-linecap="square"/>
<path d="M49 57V53" stroke="#A3A3A0" stroke-width="2" stroke-miterlimit="10" stroke-linecap="square"/>
<path d="M50 22V6C50 4.67392 49.4732 3.40215 48.5355 2.46447C47.5979 1.52678 46.3261 1 45 1H13C11.6739 1 10.4021 1.52678 9.46447 2.46447C8.52678 3.40215 8 4.67392 8 6V22" stroke="#A3A3A0" stroke-width="2" stroke-miterlimit="10" stroke-linecap="square"/>
<path d="M57 29C57 27.1435 56.2625 25.363 54.9497 24.0503C53.637 22.7375 51.8565 22 50 22C48.1435 22 46.363 22.7375 45.0503 24.0503C43.7375 25.363 43 27.1435 43 29V42H15V29C15.0008 27.7962 14.6911 26.6125 14.1008 25.5633C13.5106 24.5141 12.6597 23.6348 11.6304 23.0105C10.6011 22.3861 9.42823 22.0378 8.22501 21.9991C7.02179 21.9604 5.82893 22.2326 4.76165 22.7895C3.69438 23.3465 2.78877 24.1692 2.13232 25.1783C1.47586 26.1874 1.09075 27.3488 1.01418 28.5502C0.937605 29.7516 1.17217 30.9525 1.6952 32.0367C2.21824 33.121 3.01207 34.0521 4 34.74V48C4 49.3261 4.52678 50.5979 5.46447 51.5355C6.40215 52.4732 7.67392 53 9 53H49C50.3261 53 51.5979 52.4732 52.5355 51.5355C53.4732 50.5979 54 49.3261 54 48V34.74C54.9262 34.0964 55.6828 33.2382 56.2053 32.2386C56.7277 31.239 57.0004 30.1279 57 29Z" stroke="#A3A3A0" stroke-width="2" stroke-miterlimit="10" stroke-linecap="square"/>
<path d="M20 13V19" stroke="#A3A3A0" stroke-width="2" stroke-miterlimit="10" stroke-linecap="square"/>
<path d="M17 16H23" stroke="#A3A3A0" stroke-width="2" stroke-miterlimit="10" stroke-linecap="square"/>
<path d="M38 13V19" stroke="#A3A3A0" stroke-width="2" stroke-miterlimit="10" stroke-linecap="square"/>
<path d="M35 16H41" stroke="#A3A3A0" stroke-width="2" stroke-miterlimit="10" stroke-linecap="square"/>
</svg>
