<svg width="24" height="24" viewBox="0 0 24 24" fill="none" xmlns="http://www.w3.org/2000/svg">
<path d="M9.01221 17.1152C9.07321 18.7172 10.3832 20.0002 12.0002 20.0002C13.6172 20.0002 14.9242 18.7172 14.9862 17.1152H9.01221Z" fill="#323232"/>
<path d="M23 20C23 18.137 21.969 14.5 19 13V8C19 4.134 15.866 1 12 1C8.134 1 5 4.134 5 8V13C2 14.531 1 18.137 1 20" stroke="#323232" stroke-width="2" stroke-miterlimit="10"/>
<path d="M12 23C18.0751 23 23 21.6569 23 20C23 18.3431 18.0751 17 12 17C5.92487 17 1 18.3431 1 20C1 21.6569 5.92487 23 12 23Z" stroke="#323232" stroke-width="2" stroke-miterlimit="10" stroke-linecap="square"/>
</svg>
