<svg width="48" height="48" viewBox="0 0 48 48" fill="none" xmlns="http://www.w3.org/2000/svg">
<path opacity="0.05" d="M24 0C10.7478 0 0 10.7478 0 24C0 37.2522 10.7478 48 24 48C37.2522 48 48 37.2522 48 24C48 10.7478 37.2522 0 24 0Z" fill="#669FF9"/>
<rect x="17" y="17" width="14" height="14" rx="3" fill="white" stroke="#323232" stroke-width="2"/>
<rect x="16" y="16" width="16" height="16" rx="4" fill="#669FF9"/>
<path d="M28.293 19.293L22 25.586L19.707 23.293C19.5184 23.1109 19.2658 23.0101 19.0036 23.0123C18.7414 23.0146 18.4906 23.1198 18.3052 23.3052C18.1198 23.4906 18.0146 23.7414 18.0123 24.0036C18.0101 24.2658 18.1109 24.5184 18.293 24.707L21.293 27.707C21.4805 27.8945 21.7348 27.9998 22 27.9998C22.2652 27.9998 22.5195 27.8945 22.707 27.707L29.707 20.707C29.8892 20.5184 29.99 20.2658 29.9877 20.0036C29.9854 19.7414 29.8802 19.4906 29.6948 19.3052C29.5094 19.1198 29.2586 19.0146 28.9964 19.0123C28.7342 19.0101 28.4816 19.1109 28.293 19.293Z" fill="white"/>
</svg>



