<svg width="22" height="23" viewBox="0 0 22 23" fill="none" xmlns="http://www.w3.org/2000/svg">
<path d="M11 15C13.2091 15 15 13.2091 15 11C15 8.79086 13.2091 7 11 7C8.79086 7 7 8.79086 7 11C7 13.2091 8.79086 15 11 15Z" stroke="#A3A3A0" stroke-width="2" stroke-miterlimit="10" stroke-linecap="square"/>
<path d="M15 20.168C13.0265 21.0293 10.8277 21.2306 8.73059 20.7419C6.6335 20.2532 4.75016 19.1007 3.36066 17.4557C1.97117 15.8108 1.14975 13.7613 1.01858 11.612C0.887406 9.46271 1.45349 7.3285 2.63263 5.52677C3.81177 3.72505 5.54098 2.35205 7.56308 1.61199C9.58518 0.871922 11.7922 0.804323 13.8558 1.41924C15.9194 2.03417 17.7294 3.29876 19.0166 5.02494C20.3038 6.75112 20.9994 8.84669 21 11V12C21 12.7956 20.6839 13.5587 20.1213 14.1213C19.5587 14.6839 18.7957 15 18 15C17.2044 15 16.4413 14.6839 15.8787 14.1213C15.3161 13.5587 15 12.7956 15 12V6.99996" stroke="#A3A3A0" stroke-width="2" stroke-miterlimit="10" stroke-linecap="square"/>
</svg>
