<svg width="48" height="48" viewBox="0 0 48 48" fill="none" xmlns="http://www.w3.org/2000/svg">
<path d="M24 0C10.7478 0 0 10.7478 0 24C0 37.2522 10.7478 48 24 48C37.2522 48 48 37.2522 48 24C48 10.7478 37.2522 0 24 0Z" fill="#E5E5E5"/>
<path d="M30.7 17.3C30.3 16.9 29.7 16.9 29.3 17.3L24 22.6L18.7 17.3C18.3 16.9 17.7 16.9 17.3 17.3C16.9 17.7 16.9 18.3 17.3 18.7L22.6 24L17.3 29.3C16.9 29.7 16.9 30.3 17.3 30.7C17.5 30.9 17.7 31 18 31C18.3 31 18.5 30.9 18.7 30.7L24 25.4L29.3 30.7C29.5 30.9 29.8 31 30 31C30.2 31 30.5 30.9 30.7 30.7C31.1 30.3 31.1 29.7 30.7 29.3L25.4 24L30.7 18.7C31.1 18.3 31.1 17.7 30.7 17.3Z" fill="#323232"/>
</svg>
