<svg width="60" height="40" viewBox="0 0 60 40" fill="none" xmlns="http://www.w3.org/2000/svg">
<path d="M28.368 22.108L30.818 26H32.862L30.272 21.968C31.028 21.8 31.602 21.45 32.008 20.946C32.4 20.442 32.61 19.812 32.61 19.028C32.61 18.048 32.288 17.292 31.658 16.76C31.014 16.228 30.118 15.948 28.97 15.948H24.952V26H26.744V22.108H28.368ZM26.744 17.488H28.872C29.516 17.488 30.006 17.628 30.342 17.88C30.678 18.146 30.846 18.524 30.846 19.028C30.846 19.532 30.664 19.91 30.328 20.176C29.992 20.442 29.502 20.568 28.872 20.568H26.744V17.488ZM36.9998 26.154C37.7278 26.154 38.3578 25.972 38.9178 25.608C39.4778 25.244 39.8838 24.74 40.1498 24.096L38.7078 23.55C38.5958 23.914 38.3858 24.208 38.0778 24.418C37.7698 24.628 37.4198 24.726 36.9998 24.726C36.4538 24.726 36.0058 24.544 35.6558 24.18C35.3058 23.816 35.0958 23.326 35.0398 22.696H40.1918V22.136C40.1918 21.058 39.8978 20.19 39.3098 19.518C38.7218 18.846 37.9238 18.51 36.9298 18.51C36.4258 18.51 35.9498 18.608 35.5158 18.804C35.0678 19 34.6898 19.294 34.3678 19.658C34.0598 20.008 33.8358 20.414 33.6678 20.876C33.4998 21.338 33.4298 21.828 33.4298 22.332C33.4298 22.878 33.4998 23.382 33.6678 23.844C33.8358 24.306 34.0738 24.712 34.3818 25.048C34.7038 25.412 35.0958 25.678 35.5438 25.874C35.9918 26.07 36.4678 26.154 36.9998 26.154ZM36.9158 19.924C37.3918 19.924 37.7838 20.064 38.0638 20.344C38.3438 20.624 38.4838 20.988 38.4978 21.436H35.1238C35.2358 20.96 35.4598 20.582 35.7678 20.316C36.0758 20.064 36.4678 19.924 36.9158 19.924ZM44.0563 26.154C44.9243 26.154 45.6383 25.93 46.2123 25.468C46.7863 25.02 47.0803 24.432 47.0803 23.718C47.0803 23.354 46.9963 23.032 46.8423 22.752C46.6883 22.486 46.4503 22.262 46.1423 22.08C45.9603 21.996 45.7503 21.912 45.5263 21.828C45.2883 21.744 44.8683 21.646 44.2663 21.506C43.9583 21.45 43.7483 21.394 43.6363 21.366C43.5243 21.338 43.4403 21.324 43.3703 21.296C43.1743 21.226 43.0203 21.142 42.9363 21.044C42.8523 20.96 42.8103 20.834 42.8103 20.68C42.8103 20.442 42.9083 20.246 43.1183 20.106C43.3143 19.966 43.5943 19.882 43.9443 19.882C44.3363 19.882 44.7143 19.98 45.0503 20.162C45.3863 20.344 45.6523 20.596 45.8763 20.918L47.0103 19.896C46.7303 19.476 46.3243 19.14 45.7923 18.888C45.2463 18.636 44.6583 18.51 44.0423 18.51C43.2023 18.51 42.5023 18.734 41.9703 19.168C41.4383 19.602 41.1723 20.162 41.1723 20.834C41.1723 21.184 41.2283 21.478 41.3683 21.73C41.4943 21.982 41.6903 22.206 41.9563 22.374C42.1243 22.486 42.3343 22.584 42.5863 22.668C42.8243 22.752 43.1883 22.836 43.6643 22.934C43.9583 23.004 44.1963 23.06 44.3783 23.088C44.5603 23.13 44.6863 23.158 44.7423 23.172C44.9943 23.256 45.1763 23.34 45.2883 23.452C45.3863 23.564 45.4423 23.704 45.4423 23.872C45.4423 24.166 45.3163 24.39 45.0643 24.544C44.8123 24.712 44.4903 24.782 44.0703 24.782C43.6503 24.782 43.2443 24.684 42.8523 24.46C42.4603 24.236 42.1523 23.956 41.9423 23.592L40.6823 24.6C40.9903 25.076 41.4523 25.454 42.0683 25.734C42.6703 26.014 43.3283 26.154 44.0563 26.154ZM51.4783 26.154C52.2063 26.154 52.8363 25.972 53.3963 25.608C53.9563 25.244 54.3623 24.74 54.6283 24.096L53.1863 23.55C53.0743 23.914 52.8643 24.208 52.5563 24.418C52.2483 24.628 51.8983 24.726 51.4783 24.726C50.9323 24.726 50.4843 24.544 50.1343 24.18C49.7843 23.816 49.5743 23.326 49.5183 22.696H54.6703V22.136C54.6703 21.058 54.3763 20.19 53.7883 19.518C53.2003 18.846 52.4023 18.51 51.4083 18.51C50.9043 18.51 50.4283 18.608 49.9943 18.804C49.5463 19 49.1683 19.294 48.8463 19.658C48.5383 20.008 48.3143 20.414 48.1463 20.876C47.9783 21.338 47.9083 21.828 47.9083 22.332C47.9083 22.878 47.9783 23.382 48.1463 23.844C48.3143 24.306 48.5523 24.712 48.8603 25.048C49.1823 25.412 49.5743 25.678 50.0223 25.874C50.4703 26.07 50.9463 26.154 51.4783 26.154ZM51.3943 19.924C51.8703 19.924 52.2623 20.064 52.5423 20.344C52.8223 20.624 52.9623 20.988 52.9763 21.436H49.6023C49.7143 20.96 49.9383 20.582 50.2463 20.316C50.5543 20.064 50.9463 19.924 51.3943 19.924ZM58.2408 26.084C58.4368 26.084 58.6328 26.084 58.8428 26.056C59.0388 26.042 59.2348 26.014 59.4028 25.986V24.572C59.2348 24.6 59.1088 24.614 59.0248 24.614C58.9268 24.614 58.8288 24.614 58.7168 24.614C58.3248 24.614 58.0588 24.558 57.9328 24.446C57.7928 24.334 57.7368 24.152 57.7368 23.886V20.078H59.2768V18.65H57.7368V16.494H56.0848V18.65H55.0628V20.078H56.0848V24.152C56.0848 24.838 56.2388 25.328 56.5748 25.636C56.9108 25.944 57.4568 26.084 58.2408 26.084Z" fill="#669FF9"/>
<path d="M16 16V14H11V13C11 12.7348 10.8946 12.4804 10.7071 12.2929C10.5196 12.1054 10.2652 12 10 12H6C5.73478 12 5.48043 12.1054 5.29289 12.2929C5.10536 12.4804 5 12.7348 5 13V14H0V16H16Z" fill="#669FF9"/>
<path d="M2 17V26C2 26.5304 2.21071 27.0391 2.58579 27.4142C2.96086 27.7893 3.46957 28 4 28H12C12.5304 28 13.0391 27.7893 13.4142 27.4142C13.7893 27.0391 14 26.5304 14 26V17H2ZM11.414 24.5L10 25.914L8 23.914L6 25.914L4.586 24.5L6.586 22.5L4.586 20.5L6 19.086L8 21.086L10 19.086L11.414 20.5L9.414 22.5L11.414 24.5Z" fill="#669FF9"/>
</svg>
