<svg width="48" height="48" viewBox="0 0 48 48" fill="none" xmlns="http://www.w3.org/2000/svg">
<path d="M24 0C10.7478 0 0 10.7478 0 24C0 37.2522 10.7478 48 24 48C37.2522 48 48 37.2522 48 24C48 10.7478 37.2522 0 24 0Z" fill="#323232"/>
<path d="M24.1 19.5L16.3 27.3C16.1 27.5 16 27.7 16 28V31C16 31.6 16.4 32 17 32H20C20.3 32 20.5 31.9 20.7 31.7L28.5 23.9L24.1 19.5Z" fill="white"/>
<path d="M31.7 19.3L28.7 16.3C28.3 15.9 27.7 15.9 27.3 16.3L25.5 18.1L29.9 22.5L31.7 20.7C32.1 20.3 32.1 19.7 31.7 19.3Z" fill="white"/>
</svg>
