<svg width="16" height="16" viewBox="0 0 16 16" fill="none" xmlns="http://www.w3.org/2000/svg">
<path d="M16 4V2H11V1C11 0.734784 10.8946 0.48043 10.7071 0.292893C10.5196 0.105357 10.2652 0 10 0L6 0C5.73478 0 5.48043 0.105357 5.29289 0.292893C5.10536 0.48043 5 0.734784 5 1V2H0V4H16Z" fill="#323232"/>
<path d="M2 5V14C2 14.5304 2.21071 15.0391 2.58579 15.4142C2.96086 15.7893 3.46957 16 4 16H12C12.5304 16 13.0391 15.7893 13.4142 15.4142C13.7893 15.0391 14 14.5304 14 14V5H2ZM11.414 12.5L10 13.914L8 11.914L6 13.914L4.586 12.5L6.586 10.5L4.586 8.5L6 7.086L8 9.086L10 7.086L11.414 8.5L9.414 10.5L11.414 12.5Z" fill="#323232"/>
</svg>
