<svg width="14" height="16" viewBox="0 0 14 16" fill="none" xmlns="http://www.w3.org/2000/svg">
<path d="M11.334 12.5228C10.5457 13.1931 9.53388 13.5419 8.5 13.4998C7.6708 13.5432 6.84891 13.3252 6.15013 12.8767C5.45135 12.4282 4.91092 11.7718 4.605 10.9998H10V8.99985H4.068C4.02571 8.66814 4.003 8.33422 4 7.99985C4.003 7.66547 4.02571 7.33155 4.068 6.99985H10V4.99985H4.605C4.91092 4.22793 5.45135 3.57146 6.15013 3.12295C6.84891 2.67444 7.6708 2.4565 8.5 2.49985C9.53388 2.4578 10.5457 2.80661 11.334 3.47685L12.081 4.14285L13.412 2.64885L12.666 1.98385C11.5141 0.981609 10.0261 0.451556 8.5 0.499845C7.1298 0.445406 5.78236 0.86243 4.68246 1.68135C3.58256 2.50027 2.79671 3.67157 2.456 4.99985H0V6.99985H2.053C2.021 7.33584 2 7.67085 2 7.99985C2 8.32885 2.021 8.66385 2.053 8.99985H0V10.9998H2.456C2.79671 12.3281 3.58256 13.4994 4.68246 14.3183C5.78236 15.1373 7.1298 15.5543 8.5 15.4998C10.0261 15.5481 11.5141 15.0181 12.666 14.0158L13.412 13.3508L12.081 11.8568L11.334 12.5228Z" fill="#323232"/>
</svg>
