<svg xmlns="http://www.w3.org/2000/svg" width="421.383" height="284.479" viewBox="0 0 421.383 284.479">
  <g id="eye-close" transform="translate(0.226 -26.443)">
    <path id="Tracciato_83240" data-name="Tracciato 83240" d="M266.67,168.674c0,31.792-25.338,57.208-56.155,57.208s-56.156-25.416-56.156-57.208,25.338-57.209,56.156-57.209S266.67,136.881,266.67,168.674Z" fill="none" stroke="#000" stroke-width="28"/>
    <path id="Tracciato_83241" data-name="Tracciato 83241" d="M393.508,155.7c4.173,5.123,7.585,9.545,10.159,12.983-2.574,3.437-5.986,7.859-10.159,12.983A445.691,445.691,0,0,1,349.751,228.2c-37.361,34.231-86.645,66.162-139.285,66.162S108.542,262.426,71.181,228.2a445.706,445.706,0,0,1-43.757-46.533c-4.173-5.124-7.585-9.546-10.159-12.983,2.574-3.438,5.986-7.86,10.159-12.983a445.6,445.6,0,0,1,43.757-46.534C108.542,74.931,157.826,43,210.466,43S312.39,74.931,349.751,109.162A445.588,445.588,0,0,1,393.508,155.7Z" fill="none" stroke="#000" stroke-width="28"/>
    <path id="Tracciato_83242" data-name="Tracciato 83242" d="M0,273,296.421,11" transform="translate(63.393 26.683)" fill="none" stroke="#000" stroke-width="30"/>
  </g>
</svg>