<svg width="421" height="280" viewBox="0 0 421 280" fill="none" xmlns="http://www.w3.org/2000/svg">
<path d="M266.67 139.674C266.67 171.466 241.332 196.882 210.515 196.882C179.697 196.882 154.359 171.466 154.359 139.674C154.359 107.881 179.697 82.4648 210.515 82.4648C241.332 82.4648 266.67 107.881 266.67 139.674Z" stroke="black" stroke-width="28"/>
<path d="M393.508 126.696C397.681 131.819 401.093 136.241 403.667 139.679C401.093 143.116 397.681 147.538 393.508 152.662C383.148 165.38 368.182 182.309 349.751 199.195C312.39 233.426 263.106 265.357 210.466 265.357C157.826 265.357 108.542 233.426 71.1808 199.195C52.7501 182.309 37.7835 165.38 27.4237 152.662C23.2504 147.538 19.8391 143.116 17.2648 139.679C19.8391 136.241 23.2504 131.819 27.4237 126.696C37.7835 113.977 52.7501 97.0482 71.1808 80.1618C108.542 45.9314 157.826 14 210.466 14C263.106 14 312.39 45.9314 349.751 80.1618C368.182 97.0482 383.148 113.977 393.508 126.696Z" stroke="black" stroke-width="28"/>
</svg>
