<svg width="64" height="64" viewBox="0 0 64 64" fill="none" xmlns="http://www.w3.org/2000/svg">
<path d="M18 34H46" stroke="#A3A3A0" stroke-width="2" stroke-miterlimit="10" stroke-linecap="square"/>
<path d="M12 60V56" stroke="#A3A3A0" stroke-width="2" stroke-miterlimit="10" stroke-linecap="square"/>
<path d="M52 60V56" stroke="#A3A3A0" stroke-width="2" stroke-miterlimit="10" stroke-linecap="square"/>
<path d="M53 25V9C53 7.67392 52.4732 6.40215 51.5355 5.46447C50.5979 4.52678 49.3261 4 48 4H16C14.6739 4 13.4021 4.52678 12.4645 5.46447C11.5268 6.40215 11 7.67392 11 9V25" stroke="#A3A3A0" stroke-width="2" stroke-miterlimit="10" stroke-linecap="square"/>
<path d="M60 32C60 30.1435 59.2625 28.363 57.9497 27.0503C56.637 25.7375 54.8565 25 53 25C51.1435 25 49.363 25.7375 48.0503 27.0503C46.7375 28.363 46 30.1435 46 32V45H18V32C18.0008 30.7962 17.6911 29.6125 17.1008 28.5633C16.5106 27.5141 15.6597 26.6348 14.6304 26.0105C13.6011 25.3861 12.4282 25.0378 11.225 24.9991C10.0218 24.9604 8.82893 25.2326 7.76165 25.7895C6.69438 26.3465 5.78877 27.1692 5.13232 28.1783C4.47586 29.1874 4.09075 30.3488 4.01418 31.5502C3.93761 32.7516 4.17217 33.9525 4.6952 35.0367C5.21824 36.121 6.01207 37.0521 7 37.74V51C7 52.3261 7.52678 53.5979 8.46447 54.5355C9.40215 55.4732 10.6739 56 12 56H52C53.3261 56 54.5979 55.4732 55.5355 54.5355C56.4732 53.5979 57 52.3261 57 51V37.74C57.9262 37.0964 58.6828 36.2382 59.2053 35.2386C59.7277 34.239 60.0004 33.1279 60 32Z" stroke="#A3A3A0" stroke-width="2" stroke-miterlimit="10" stroke-linecap="square"/>
<path d="M23 16V22" stroke="#A3A3A0" stroke-width="2" stroke-miterlimit="10" stroke-linecap="square"/>
<path d="M20 19H26" stroke="#A3A3A0" stroke-width="2" stroke-miterlimit="10" stroke-linecap="square"/>
<path d="M41 16V22" stroke="#A3A3A0" stroke-width="2" stroke-miterlimit="10" stroke-linecap="square"/>
<path d="M38 19H44" stroke="#A3A3A0" stroke-width="2" stroke-miterlimit="10" stroke-linecap="square"/>
<path d="M18 34H46" stroke="#A3A3A0" stroke-width="2" stroke-miterlimit="10" stroke-linecap="square"/>
<path d="M12 60V56" stroke="#A3A3A0" stroke-width="2" stroke-miterlimit="10" stroke-linecap="square"/>
<path d="M52 60V56" stroke="#A3A3A0" stroke-width="2" stroke-miterlimit="10" stroke-linecap="square"/>
<path d="M53 25V9C53 7.67392 52.4732 6.40215 51.5355 5.46447C50.5979 4.52678 49.3261 4 48 4H16C14.6739 4 13.4021 4.52678 12.4645 5.46447C11.5268 6.40215 11 7.67392 11 9V25" stroke="#A3A3A0" stroke-width="2" stroke-miterlimit="10" stroke-linecap="square"/>
<path d="M60 32C60 30.1435 59.2625 28.363 57.9497 27.0503C56.637 25.7375 54.8565 25 53 25C51.1435 25 49.363 25.7375 48.0503 27.0503C46.7375 28.363 46 30.1435 46 32V45H18V32C18.0008 30.7962 17.6911 29.6125 17.1008 28.5633C16.5106 27.5141 15.6597 26.6348 14.6304 26.0105C13.6011 25.3861 12.4282 25.0378 11.225 24.9991C10.0218 24.9604 8.82893 25.2326 7.76165 25.7895C6.69438 26.3465 5.78877 27.1692 5.13232 28.1783C4.47586 29.1874 4.09075 30.3488 4.01418 31.5502C3.93761 32.7516 4.17217 33.9525 4.6952 35.0367C5.21824 36.121 6.01207 37.0521 7 37.74V51C7 52.3261 7.52678 53.5979 8.46447 54.5355C9.40215 55.4732 10.6739 56 12 56H52C53.3261 56 54.5979 55.4732 55.5355 54.5355C56.4732 53.5979 57 52.3261 57 51V37.74C57.9262 37.0964 58.6828 36.2382 59.2053 35.2386C59.7277 34.239 60.0004 33.1279 60 32Z" stroke="#A3A3A0" stroke-width="2" stroke-miterlimit="10" stroke-linecap="square"/>
<path d="M23 16V22" stroke="#A3A3A0" stroke-width="2" stroke-miterlimit="10" stroke-linecap="square"/>
<path d="M20 19H26" stroke="#A3A3A0" stroke-width="2" stroke-miterlimit="10" stroke-linecap="square"/>
<path d="M41 16V22" stroke="#A3A3A0" stroke-width="2" stroke-miterlimit="10" stroke-linecap="square"/>
<path d="M38 19H44" stroke="#A3A3A0" stroke-width="2" stroke-miterlimit="10" stroke-linecap="square"/>
</svg>
