<svg width="16" height="20" viewBox="0 0 16 20" fill="none" xmlns="http://www.w3.org/2000/svg">
<path d="M2.00016 3.33333H14.0002C14.177 3.33333 14.3465 3.2631 14.4716 3.13807C14.5966 3.01305 14.6668 2.84348 14.6668 2.66667C14.6668 2.48986 14.5966 2.32029 14.4716 2.19526C14.3465 2.07024 14.177 2 14.0002 2H2.00016C1.82335 2 1.65378 2.07024 1.52876 2.19526C1.40373 2.32029 1.3335 2.48986 1.3335 2.66667C1.3335 2.84348 1.40373 3.01305 1.52876 3.13807C1.65378 3.2631 1.82335 3.33333 2.00016 3.33333Z" fill="black"/>
<path d="M2.00016 8.66658H14.0002C14.177 8.66658 14.3465 8.59635 14.4716 8.47132C14.5966 8.3463 14.6668 8.17673 14.6668 7.99992C14.6668 7.82311 14.5966 7.65354 14.4716 7.52851C14.3465 7.40349 14.177 7.33325 14.0002 7.33325H2.00016C1.82335 7.33325 1.65378 7.40349 1.52876 7.52851C1.40373 7.65354 1.3335 7.82311 1.3335 7.99992C1.3335 8.17673 1.40373 8.3463 1.52876 8.47132C1.65378 8.59635 1.82335 8.66658 2.00016 8.66658Z" fill="black"/>
<path d="M2.00016 14.0001H14.0002C14.177 14.0001 14.3465 13.9298 14.4716 13.8048C14.5966 13.6798 14.6668 13.5102 14.6668 13.3334C14.6668 13.1566 14.5966 12.987 14.4716 12.862C14.3465 12.737 14.177 12.6667 14.0002 12.6667H2.00016C1.82335 12.6667 1.65378 12.737 1.52876 12.862C1.40373 12.987 1.3335 13.1566 1.3335 13.3334C1.3335 13.5102 1.40373 13.6798 1.52876 13.8048C1.65378 13.9298 1.82335 14.0001 2.00016 14.0001Z" fill="black"/>
</svg>
