<svg width="74" height="18" viewBox="0 0 74 18" fill="none" xmlns="http://www.w3.org/2000/svg">
<rect width="74" height="18" rx="9" fill="#40A06A"/>
<path d="M9 9.5L11 11.5L16 5.5" stroke="white" stroke-miterlimit="10" stroke-linecap="square"/>
<path d="M13.5 11L14 11.5L19 5.5" stroke="white" stroke-miterlimit="10" stroke-linecap="square"/>
<path d="M24.8687 4.384V13H26.4047V4.384H24.8687ZM29.4128 13V9.304C29.4128 8.896 29.5328 8.572 29.7848 8.308C30.0368 8.056 30.3488 7.924 30.7208 7.924C31.0808 7.924 31.3448 8.044 31.5368 8.272C31.7288 8.512 31.8248 8.836 31.8248 9.268V13H33.2648V8.848C33.2648 8.164 33.0728 7.612 32.6888 7.204C32.3048 6.796 31.8008 6.58 31.1528 6.58C30.7928 6.58 30.4688 6.652 30.1808 6.784C29.8928 6.928 29.6288 7.12 29.4128 7.372V6.7H27.9728V13H29.4128ZM39.4392 13.132C40.1832 13.132 40.7952 12.94 41.2872 12.544C41.7792 12.16 42.0312 11.656 42.0312 11.044C42.0312 10.732 41.9592 10.456 41.8272 10.216C41.6952 9.988 41.4912 9.796 41.2272 9.64C41.0712 9.568 40.8912 9.496 40.6992 9.424C40.4952 9.352 40.1352 9.268 39.6192 9.148C39.3552 9.1 39.1752 9.052 39.0792 9.028C38.9832 9.004 38.9112 8.992 38.8512 8.968C38.6832 8.908 38.5512 8.836 38.4792 8.752C38.4072 8.68 38.3712 8.572 38.3712 8.44C38.3712 8.236 38.4552 8.068 38.6352 7.948C38.8032 7.828 39.0432 7.756 39.3432 7.756C39.6792 7.756 40.0032 7.84 40.2912 7.996C40.5792 8.152 40.8072 8.368 40.9992 8.644L41.9712 7.768C41.7312 7.408 41.3832 7.12 40.9272 6.904C40.4592 6.688 39.9552 6.58 39.4272 6.58C38.7072 6.58 38.1072 6.772 37.6512 7.144C37.1952 7.516 36.9672 7.996 36.9672 8.572C36.9672 8.872 37.0152 9.124 37.1352 9.34C37.2432 9.556 37.4112 9.748 37.6392 9.892C37.7832 9.988 37.9632 10.072 38.1792 10.144C38.3832 10.216 38.6952 10.288 39.1032 10.372C39.3552 10.432 39.5592 10.48 39.7152 10.504C39.8712 10.54 39.9792 10.564 40.0272 10.576C40.2432 10.648 40.3992 10.72 40.4952 10.816C40.5792 10.912 40.6272 11.032 40.6272 11.176C40.6272 11.428 40.5192 11.62 40.3032 11.752C40.0872 11.896 39.8112 11.956 39.4512 11.956C39.0912 11.956 38.7432 11.872 38.4072 11.68C38.0712 11.488 37.8072 11.248 37.6272 10.936L36.5472 11.8C36.8112 12.208 37.2072 12.532 37.7352 12.772C38.2512 13.012 38.8152 13.132 39.4392 13.132ZM45.1169 13.072C45.2849 13.072 45.4529 13.072 45.6329 13.048C45.8009 13.036 45.9689 13.012 46.1129 12.988V11.776C45.9689 11.8 45.8609 11.812 45.7889 11.812C45.7049 11.812 45.6209 11.812 45.5249 11.812C45.1889 11.812 44.9609 11.764 44.8529 11.668C44.7329 11.572 44.6849 11.416 44.6849 11.188V7.924H46.0049V6.7H44.6849V4.852H43.2689V6.7H42.3929V7.924H43.2689V11.416C43.2689 12.004 43.4009 12.424 43.6889 12.688C43.9769 12.952 44.4449 13.072 45.1169 13.072ZM52.005 7.54C51.717 7.228 51.393 7 51.009 6.832C50.625 6.664 50.217 6.58 49.773 6.58C49.317 6.58 48.909 6.664 48.525 6.832C48.141 7 47.817 7.228 47.541 7.54C47.277 7.828 47.073 8.176 46.941 8.572C46.797 8.968 46.737 9.4 46.737 9.856C46.737 10.324 46.797 10.756 46.941 11.152C47.073 11.548 47.277 11.884 47.541 12.172C47.817 12.484 48.141 12.724 48.525 12.892C48.909 13.06 49.317 13.132 49.773 13.132C50.217 13.132 50.625 13.06 51.009 12.892C51.393 12.724 51.717 12.484 52.005 12.172C52.269 11.884 52.461 11.548 52.605 11.152C52.737 10.756 52.809 10.324 52.809 9.856C52.809 9.4 52.737 8.968 52.605 8.572C52.461 8.176 52.269 7.828 52.005 7.54ZM49.773 7.792C50.253 7.792 50.637 7.984 50.925 8.344C51.213 8.716 51.357 9.22 51.357 9.856C51.357 10.504 51.213 11.008 50.925 11.368C50.637 11.74 50.253 11.92 49.773 11.92C49.281 11.92 48.897 11.74 48.609 11.368C48.321 11.008 48.189 10.504 48.189 9.856C48.189 9.22 48.321 8.716 48.609 8.344C48.897 7.984 49.281 7.792 49.773 7.792ZM56.6298 7.816C56.9778 7.816 57.2778 7.924 57.5298 8.14C57.7698 8.356 57.9498 8.644 58.0458 9.016L59.2578 8.356C59.0658 7.816 58.7418 7.384 58.2738 7.06C57.8058 6.748 57.2538 6.58 56.6298 6.58C56.1738 6.58 55.7538 6.664 55.3698 6.832C54.9858 7 54.6498 7.228 54.3738 7.528C54.0978 7.828 53.8938 8.176 53.7498 8.572C53.6058 8.968 53.5338 9.4 53.5338 9.856C53.5338 10.324 53.6058 10.756 53.7498 11.152C53.8938 11.548 54.0978 11.896 54.3738 12.184C54.6498 12.496 54.9858 12.724 55.3698 12.892C55.7538 13.06 56.1738 13.132 56.6298 13.132C57.2658 13.132 57.8178 12.976 58.2978 12.64C58.7778 12.304 59.1018 11.86 59.2818 11.308L58.0458 10.684C57.9498 11.068 57.7698 11.368 57.5298 11.572C57.2778 11.788 56.9778 11.884 56.6298 11.884C56.1258 11.884 55.7178 11.704 55.4178 11.344C55.1178 10.984 54.9738 10.48 54.9738 9.856C54.9738 9.232 55.1178 8.74 55.4178 8.368C55.7178 8.008 56.1258 7.816 56.6298 7.816ZM60.1525 4.384V13H61.5925V10.996L62.4205 10.156L64.3045 13H65.9725L63.4045 9.148L65.7805 6.7H64.0165L61.5925 9.352V4.384H60.1525Z" fill="white"/>
</svg>
