<svg width="17" height="20" viewBox="0 0 17 20" fill="none" xmlns="http://www.w3.org/2000/svg">
<path d="M0 12.5C0 12.7652 0.105357 13.0196 0.292893 13.2071C0.48043 13.3946 0.734784 13.5 1 13.5H3.571C4.09225 15.3177 5.17379 16.9245 6.66158 18.0916C8.14936 19.2587 9.9675 19.9265 11.857 20C13.104 20.0004 14.3337 19.7079 15.447 19.146C15.6844 19.0275 15.8649 18.8195 15.9489 18.5678C16.033 18.3161 16.0136 18.0414 15.895 17.804C15.7764 17.5666 15.5685 17.3861 15.3168 17.3021C15.0651 17.218 14.7904 17.2375 14.553 17.356C13.716 17.7795 12.7911 18.0001 11.853 18C10.4972 17.9429 9.18886 17.4849 8.09355 16.6838C6.99825 15.8828 6.16524 14.7747 5.7 13.5H10C10.2652 13.5 10.5196 13.3946 10.7071 13.2071C10.8946 13.0196 11 12.7652 11 12.5C11 12.2348 10.8946 11.9804 10.7071 11.7929C10.5196 11.6054 10.2652 11.5 10 11.5H5.125C4.95832 10.5069 4.95832 9.49306 5.125 8.5H11C11.2652 8.5 11.5196 8.39465 11.7071 8.20711C11.8946 8.01957 12 7.76522 12 7.5C12 7.23479 11.8946 6.98043 11.7071 6.7929C11.5196 6.60536 11.2652 6.5 11 6.5H5.7C6.1655 5.22466 6.99911 4.11621 8.09521 3.3151C9.1913 2.514 10.5005 2.0563 11.857 2C12.7951 1.99993 13.72 2.22054 14.557 2.644C14.7944 2.76255 15.0691 2.78196 15.3208 2.69794C15.5725 2.61392 15.7804 2.43337 15.899 2.196C16.0176 1.95863 16.037 1.68389 15.9529 1.43222C15.8689 1.18055 15.6884 0.972555 15.451 0.854003C14.3365 0.291516 13.1054 -0.00102385 11.857 2.69232e-06C9.9675 0.0734603 8.14936 0.741305 6.66158 1.90841C5.17379 3.0755 4.09225 4.68233 3.571 6.5H1C0.734784 6.5 0.48043 6.60536 0.292893 6.7929C0.105357 6.98043 0 7.23479 0 7.5C0 7.76522 0.105357 8.01957 0.292893 8.20711C0.48043 8.39465 0.734784 8.5 1 8.5H3.111C3.04048 8.99696 3.0034 9.49808 3 10C3.0034 10.5019 3.04048 11.003 3.111 11.5H1C0.734784 11.5 0.48043 11.6054 0.292893 11.7929C0.105357 11.9804 0 12.2348 0 12.5Z" fill="black"/>
</svg>
