<svg width="139" height="25" viewBox="0 0 139 25" fill="none" xmlns="http://www.w3.org/2000/svg">
<rect y="1" width="139" height="24" rx="12" fill="#FFC9C8" fill-opacity="0.5"/>
<path d="M21.742 7.948H23.044V18H21.882L16.394 9.908V18H15.106V7.948H16.52L21.742 15.718V7.948ZM30.6125 11.672C30.9019 12.008 31.1212 12.4047 31.2705 12.862C31.4199 13.3193 31.4945 13.814 31.4945 14.346C31.4945 14.878 31.4199 15.3727 31.2705 15.83C31.1212 16.2873 30.9019 16.684 30.6125 17.02C30.3045 17.384 29.9312 17.664 29.4925 17.86C29.0632 18.056 28.5965 18.154 28.0925 18.154C27.5885 18.154 27.1172 18.056 26.6785 17.86C26.2492 17.664 25.8805 17.384 25.5725 17.02C25.2832 16.684 25.0639 16.2873 24.9145 15.83C24.7652 15.3727 24.6905 14.878 24.6905 14.346C24.6905 13.814 24.7652 13.3193 24.9145 12.862C25.0639 12.4047 25.2832 12.008 25.5725 11.672C25.8805 11.308 26.2492 11.028 26.6785 10.832C27.1172 10.636 27.5885 10.538 28.0925 10.538C28.5965 10.538 29.0632 10.636 29.4925 10.832C29.9312 11.028 30.3045 11.308 30.6125 11.672ZM29.6325 12.344C29.2499 11.8493 28.7365 11.602 28.0925 11.602C27.4485 11.602 26.9305 11.8493 26.5385 12.344C26.1559 12.8387 25.9645 13.506 25.9645 14.346C25.9645 15.1767 26.1559 15.8393 26.5385 16.334C26.9305 16.8287 27.4485 17.076 28.0925 17.076C28.7365 17.076 29.2499 16.8287 29.6325 16.334C30.0245 15.8393 30.2205 15.1767 30.2205 14.346C30.2205 13.506 30.0245 12.8387 29.6325 12.344ZM34.3569 18H33.0969V10.678H34.3569V11.672C34.6089 11.308 34.9215 11.028 35.2949 10.832C35.6775 10.636 36.0929 10.538 36.5409 10.538C37.2875 10.538 37.8802 10.776 38.3189 11.252C38.7575 11.728 38.9769 12.3673 38.9769 13.17V18H37.7169V13.506C37.7169 12.9273 37.5862 12.484 37.3249 12.176C37.0635 11.868 36.6855 11.714 36.1909 11.714C35.6869 11.714 35.2529 11.896 34.8889 12.26C34.5342 12.6147 34.3569 13.072 34.3569 13.632V18ZM47.0463 18.154C46.1597 18.154 45.3383 17.9487 44.5823 17.538C43.8357 17.1273 43.2943 16.5907 42.9583 15.928L44.0083 15.088C44.3257 15.6853 44.7503 16.152 45.2823 16.488C45.8237 16.824 46.421 16.992 47.0743 16.992C47.765 16.992 48.3203 16.8287 48.7403 16.502C49.1697 16.1753 49.3843 15.7413 49.3843 15.2C49.3843 14.892 49.305 14.6353 49.1463 14.43C48.997 14.2153 48.7497 14.0333 48.4043 13.884C48.2643 13.828 48.101 13.772 47.9143 13.716C47.737 13.66 47.331 13.5573 46.6963 13.408C46.099 13.268 45.6463 13.142 45.3383 13.03C45.0303 12.9087 44.769 12.778 44.5543 12.638C44.209 12.414 43.9523 12.1433 43.7843 11.826C43.6257 11.5087 43.5463 11.1353 43.5463 10.706C43.5463 10.2673 43.635 9.866 43.8123 9.502C43.999 9.12867 44.265 8.80667 44.6103 8.536C44.9183 8.29333 45.273 8.11133 45.6743 7.99C46.085 7.85933 46.519 7.794 46.9763 7.794C47.7883 7.794 48.5117 7.97133 49.1463 8.326C49.781 8.67133 50.2617 9.152 50.5883 9.768L49.5663 10.58C49.277 10.0293 48.913 9.62333 48.4743 9.362C48.045 9.09133 47.5363 8.956 46.9483 8.956C46.3323 8.956 45.8283 9.11 45.4363 9.418C45.0443 9.726 44.8483 10.118 44.8483 10.594C44.8483 10.874 44.9137 11.1073 45.0443 11.294C45.1843 11.4807 45.399 11.644 45.6883 11.784C45.8283 11.84 45.9963 11.9007 46.1923 11.966C46.3977 12.022 46.7337 12.106 47.2003 12.218C47.9843 12.4047 48.521 12.5493 48.8103 12.652C49.109 12.7547 49.3657 12.8713 49.5803 13.002C49.963 13.2353 50.243 13.5247 50.4203 13.87C50.607 14.206 50.7003 14.612 50.7003 15.088C50.7003 15.5453 50.6023 15.97 50.4063 16.362C50.2103 16.754 49.9257 17.09 49.5523 17.37C49.2257 17.622 48.843 17.818 48.4043 17.958C47.975 18.0887 47.5223 18.154 47.0463 18.154ZM53.4851 9.404H52.1131V7.948H53.4851V9.404ZM52.1691 10.678H53.4291V18H52.1691V10.678ZM56.7924 18H55.5324V10.678H56.7924V11.672C57.0444 11.308 57.3571 11.028 57.7304 10.832C58.1131 10.636 58.5284 10.538 58.9764 10.538C59.7231 10.538 60.3158 10.776 60.7544 11.252C61.1931 11.728 61.4124 12.3673 61.4124 13.17V18H60.1524V13.506C60.1524 12.9273 60.0218 12.484 59.7604 12.176C59.4991 11.868 59.1211 11.714 58.6264 11.714C58.1224 11.714 57.6884 11.896 57.3244 12.26C56.9698 12.6147 56.7924 13.072 56.7924 13.632V18ZM66.3888 11.63C65.7261 11.63 65.1941 11.8773 64.7928 12.372C64.3914 12.8667 64.1908 13.5247 64.1908 14.346C64.1908 15.1673 64.3914 15.8253 64.7928 16.32C65.1941 16.8053 65.7261 17.048 66.3888 17.048C66.8554 17.048 67.2474 16.9127 67.5648 16.642C67.8821 16.3713 68.0968 15.9887 68.2088 15.494L69.3288 16.012C69.1421 16.6653 68.7828 17.188 68.2508 17.58C67.7281 17.9627 67.1074 18.154 66.3888 18.154C65.8754 18.154 65.3994 18.0607 64.9608 17.874C64.5221 17.678 64.1488 17.398 63.8408 17.034C63.5421 16.6887 63.3134 16.2873 63.1548 15.83C63.0054 15.3727 62.9308 14.878 62.9308 14.346C62.9308 13.814 63.0054 13.3193 63.1548 12.862C63.3134 12.4047 63.5421 12.0033 63.8408 11.658C64.1488 11.294 64.5221 11.0187 64.9608 10.832C65.3994 10.636 65.8754 10.538 66.3888 10.538C67.1074 10.538 67.7234 10.7293 68.2368 11.112C68.7594 11.4853 69.1141 11.994 69.3008 12.638L68.2088 13.184C68.0968 12.6893 67.8821 12.3067 67.5648 12.036C67.2474 11.7653 66.8554 11.63 66.3888 11.63ZM73.9982 10.622C74.0822 10.622 74.1662 10.6267 74.2502 10.636C74.3342 10.636 74.4182 10.6407 74.5022 10.65V11.924C74.3995 11.9053 74.3015 11.8913 74.2082 11.882C74.1149 11.8727 74.0075 11.868 73.8862 11.868C73.3355 11.868 72.8782 12.0687 72.5142 12.47C72.1502 12.862 71.9682 13.3707 71.9682 13.996V18H70.7082V10.678H71.9682V11.924C72.1455 11.5227 72.4115 11.2053 72.7662 10.972C73.1302 10.7387 73.5409 10.622 73.9982 10.622ZM81.0071 11.672C81.2964 12.008 81.5157 12.4047 81.6651 12.862C81.8144 13.3193 81.8891 13.814 81.8891 14.346C81.8891 14.878 81.8144 15.3727 81.6651 15.83C81.5157 16.2873 81.2964 16.684 81.0071 17.02C80.6991 17.384 80.3257 17.664 79.8871 17.86C79.4577 18.056 78.9911 18.154 78.4871 18.154C77.9831 18.154 77.5117 18.056 77.0731 17.86C76.6437 17.664 76.2751 17.384 75.9671 17.02C75.6777 16.684 75.4584 16.2873 75.3091 15.83C75.1597 15.3727 75.0851 14.878 75.0851 14.346C75.0851 13.814 75.1597 13.3193 75.3091 12.862C75.4584 12.4047 75.6777 12.008 75.9671 11.672C76.2751 11.308 76.6437 11.028 77.0731 10.832C77.5117 10.636 77.9831 10.538 78.4871 10.538C78.9911 10.538 79.4577 10.636 79.8871 10.832C80.3257 11.028 80.6991 11.308 81.0071 11.672ZM80.0271 12.344C79.6444 11.8493 79.1311 11.602 78.4871 11.602C77.8431 11.602 77.3251 11.8493 76.9331 12.344C76.5504 12.8387 76.3591 13.506 76.3591 14.346C76.3591 15.1767 76.5504 15.8393 76.9331 16.334C77.3251 16.8287 77.8431 17.076 78.4871 17.076C79.1311 17.076 79.6444 16.8287 80.0271 16.334C80.4191 15.8393 80.6151 15.1767 80.6151 14.346C80.6151 13.506 80.4191 12.8387 80.0271 12.344ZM84.7514 18H83.4914V10.678H84.7514V11.672C85.0034 11.308 85.3161 11.028 85.6894 10.832C86.0721 10.636 86.4874 10.538 86.9354 10.538C87.6821 10.538 88.2747 10.776 88.7134 11.252C89.1521 11.728 89.3714 12.3673 89.3714 13.17V18H88.1114V13.506C88.1114 12.9273 87.9807 12.484 87.7194 12.176C87.4581 11.868 87.0801 11.714 86.5854 11.714C86.0814 11.714 85.6474 11.896 85.2834 12.26C84.9287 12.6147 84.7514 13.072 84.7514 13.632V18ZM92.7098 9.404H91.3378V7.948H92.7098V9.404ZM91.3938 10.678H92.6538V18H91.3938V10.678ZM95.863 16.922H100.049V18H94.281V17.048L98.509 11.756H94.337V10.678H100.007V11.644L95.863 16.922ZM102.795 16.922H106.981V18H101.213V17.048L105.441 11.756H101.269V10.678H106.939V11.644L102.795 16.922ZM113.775 12.624V16.404C113.775 16.6747 113.785 16.95 113.803 17.23C113.822 17.51 113.85 17.7667 113.887 18H112.641C112.632 17.916 112.623 17.8227 112.613 17.72C112.604 17.608 112.595 17.4493 112.585 17.244C112.352 17.5147 112.039 17.7293 111.647 17.888C111.255 18.0467 110.831 18.126 110.373 18.126C109.673 18.126 109.095 17.93 108.637 17.538C108.18 17.146 107.951 16.6373 107.951 16.012C107.951 15.3773 108.171 14.8687 108.609 14.486C109.057 14.094 109.767 13.8047 110.737 13.618L112.557 13.254V12.806C112.557 12.4233 112.431 12.134 112.179 11.938C111.927 11.742 111.559 11.644 111.073 11.644C110.597 11.644 110.224 11.7467 109.953 11.952C109.683 12.148 109.524 12.442 109.477 12.834H108.245C108.301 12.106 108.586 11.5413 109.099 11.14C109.613 10.7387 110.294 10.538 111.143 10.538C111.974 10.538 112.618 10.72 113.075 11.084C113.542 11.448 113.775 11.9613 113.775 12.624ZM110.541 17.104C111.101 17.104 111.577 16.95 111.969 16.642C112.361 16.334 112.557 15.956 112.557 15.508V14.234L111.073 14.542C110.373 14.682 109.888 14.8593 109.617 15.074C109.347 15.2887 109.211 15.5827 109.211 15.956C109.211 16.3107 109.333 16.5907 109.575 16.796C109.818 17.0013 110.14 17.104 110.541 17.104ZM117.968 18.07C117.268 18.07 116.764 17.9253 116.456 17.636C116.157 17.3467 116.008 16.8847 116.008 16.25V11.756H114.874V10.678H116.008V8.536H117.254V10.678H118.92V11.756H117.254V16.054C117.254 16.3807 117.324 16.614 117.464 16.754C117.613 16.894 117.884 16.964 118.276 16.964C118.444 16.964 118.584 16.9593 118.696 16.95C118.817 16.9313 118.943 16.908 119.074 16.88V17.958C118.906 17.9953 118.728 18.0233 118.542 18.042C118.355 18.0607 118.164 18.07 117.968 18.07ZM125.947 11.672C126.236 12.008 126.455 12.4047 126.605 12.862C126.754 13.3193 126.829 13.814 126.829 14.346C126.829 14.878 126.754 15.3727 126.605 15.83C126.455 16.2873 126.236 16.684 125.947 17.02C125.639 17.384 125.265 17.664 124.827 17.86C124.397 18.056 123.931 18.154 123.427 18.154C122.923 18.154 122.451 18.056 122.013 17.86C121.583 17.664 121.215 17.384 120.907 17.02C120.617 16.684 120.398 16.2873 120.249 15.83C120.099 15.3727 120.025 14.878 120.025 14.346C120.025 13.814 120.099 13.3193 120.249 12.862C120.398 12.4047 120.617 12.008 120.907 11.672C121.215 11.308 121.583 11.028 122.013 10.832C122.451 10.636 122.923 10.538 123.427 10.538C123.931 10.538 124.397 10.636 124.827 10.832C125.265 11.028 125.639 11.308 125.947 11.672ZM124.967 12.344C124.584 11.8493 124.071 11.602 123.427 11.602C122.783 11.602 122.265 11.8493 121.873 12.344C121.49 12.8387 121.299 13.506 121.299 14.346C121.299 15.1767 121.49 15.8393 121.873 16.334C122.265 16.8287 122.783 17.076 123.427 17.076C124.071 17.076 124.584 16.8287 124.967 16.334C125.359 15.8393 125.555 15.1767 125.555 14.346C125.555 13.506 125.359 12.8387 124.967 12.344Z" fill="#323232"/>
</svg>
