<svg width="16" height="16" viewBox="0 0 16 16" fill="none" xmlns="http://www.w3.org/2000/svg">
<path d="M5.47302 7L5.13002 5.693H2.86502L2.51202 7H0.442017L2.71702 0H5.23002L7.53002 7H5.47302ZM4.73902 4.149L4.43802 3C4.36902 2.745 4.28302 2.416 4.18302 2.013C4.08302 1.61 4.01702 1.32 3.98302 1.145C3.95502 1.307 3.89868 1.57367 3.81402 1.945C3.72935 2.31633 3.54268 3.04967 3.25402 4.145L4.73902 4.149Z" fill="#323232"/>
<path d="M6.71399 16H1.26099V14.831L4.29199 10.531H1.33299V9H6.63799V10.164L3.60699 14.473H6.71399V16Z" fill="#323232"/>
<path d="M13 11V0H11V11H8L12 16L16 11H13Z" fill="#323232"/>
</svg>
