<svg width="46" height="46" viewBox="0 0 46 46" fill="none" xmlns="http://www.w3.org/2000/svg">
<path d="M46 23C46 10.3 35.7 -4.50227e-07 23 -1.00536e-06C10.3 -1.5605e-06 -4.50227e-07 10.3 -1.00536e-06 23C-1.5605e-06 35.7 10.3 46 23 46C35.7 46 46 35.7 46 23ZM22 33L22 24L13 24C12.4 24 12 23.6 12 23C12 22.4 12.4 22 13 22L22 22L22 13C22 12.4 22.4 12 23 12C23.6 12 24 12.4 24 13L24 22L33 22C33.6 22 34 22.4 34 23C34 23.6 33.6 24 33 24L24 24L24 33C24 33.6 23.6 34 23 34C22.4 34 22 33.6 22 33Z" fill="#323232"/>
</svg>
