<svg xmlns="http://www.w3.org/2000/svg" viewBox="0 0 24 30" x="0px" y="0px"><title>reload, refresh, arrow, recycle</title><path d="M12,3a8.948,8.948,0,0,1,4.419,1.167L15.293,5.293A1,1,0,0,0,16,7h4a.959.959,0,0,0,.121-.024,1.027,1.027,0,0,0,.188-.038.968.968,0,0,0,.192-.092,1.007,1.007,0,0,0,.1-.047c.018-.014.026-.035.044-.05a1.061,1.061,0,0,0,.141-.158,1.081,1.081,0,0,0,.1-.147.958.958,0,0,0,.061-.178.9.9,0,0,0,.04-.2c0-.023.014-.043.014-.067V2a1,1,0,0,0-1.707-.707L17.883,2.7A11,11,0,0,0,1,12a1,1,0,0,0,2,0A9.01,9.01,0,0,1,12,3Z"/><path d="M22,11a1,1,0,0,0-1,1A8.99,8.99,0,0,1,7.581,19.833l1.126-1.126A1,1,0,0,0,8,17H4a.878.878,0,0,0-.124.025.974.974,0,0,0-.183.037.993.993,0,0,0-.195.092.991.991,0,0,0-.1.047c-.018.014-.026.035-.043.05a1.015,1.015,0,0,0-.142.158,1.081,1.081,0,0,0-.1.147.958.958,0,0,0-.061.178.9.9,0,0,0-.04.2c0,.023-.014.043-.014.067v4a1,1,0,0,0,.617.924A.987.987,0,0,0,4,23a1,1,0,0,0,.707-.293l1.41-1.41A11,11,0,0,0,23,12,1,1,0,0,0,22,11Z"/><text x="0" y="39" fill="#000000" font-size="5px" font-weight="bold" font-family="'Helvetica Neue', Helvetica, Arial-Unicode, Arial, Sans-serif">Created by Royyan Wijaya</text><text x="0" y="44" fill="#000000" font-size="5px" font-weight="bold" font-family="'Helvetica Neue', Helvetica, Arial-Unicode, Arial, Sans-serif">from the Noun Project</text></svg>