<svg width="139" height="25" viewBox="0 0 139 25" fill="none" xmlns="http://www.w3.org/2000/svg">
<rect y="1" width="139" height="24" rx="12" fill="#A7DCBE" fill-opacity="0.5"/>
<path d="M33.144 18.154C32.2573 18.154 31.436 17.9487 30.68 17.538C29.9333 17.1273 29.392 16.5907 29.056 15.928L30.106 15.088C30.4233 15.6853 30.848 16.152 31.38 16.488C31.9213 16.824 32.5187 16.992 33.172 16.992C33.8627 16.992 34.418 16.8287 34.838 16.502C35.2673 16.1753 35.482 15.7413 35.482 15.2C35.482 14.892 35.4027 14.6353 35.244 14.43C35.0947 14.2153 34.8473 14.0333 34.502 13.884C34.362 13.828 34.1987 13.772 34.012 13.716C33.8347 13.66 33.4287 13.5573 32.794 13.408C32.1967 13.268 31.744 13.142 31.436 13.03C31.128 12.9087 30.8667 12.778 30.652 12.638C30.3067 12.414 30.05 12.1433 29.882 11.826C29.7233 11.5087 29.644 11.1353 29.644 10.706C29.644 10.2673 29.7327 9.866 29.91 9.502C30.0967 9.12867 30.3627 8.80667 30.708 8.536C31.016 8.29333 31.3707 8.11133 31.772 7.99C32.1827 7.85933 32.6167 7.794 33.074 7.794C33.886 7.794 34.6093 7.97133 35.244 8.326C35.8787 8.67133 36.3593 9.152 36.686 9.768L35.664 10.58C35.3747 10.0293 35.0107 9.62333 34.572 9.362C34.1427 9.09133 33.634 8.956 33.046 8.956C32.43 8.956 31.926 9.11 31.534 9.418C31.142 9.726 30.946 10.118 30.946 10.594C30.946 10.874 31.0113 11.1073 31.142 11.294C31.282 11.4807 31.4967 11.644 31.786 11.784C31.926 11.84 32.094 11.9007 32.29 11.966C32.4953 12.022 32.8313 12.106 33.298 12.218C34.082 12.4047 34.6187 12.5493 34.908 12.652C35.2067 12.7547 35.4633 12.8713 35.678 13.002C36.0607 13.2353 36.3407 13.5247 36.518 13.87C36.7047 14.206 36.798 14.612 36.798 15.088C36.798 15.5453 36.7 15.97 36.504 16.362C36.308 16.754 36.0233 17.09 35.65 17.37C35.3233 17.622 34.9407 17.818 34.502 17.958C34.0727 18.0887 33.62 18.154 33.144 18.154ZM39.5828 9.404H38.2108V7.948H39.5828V9.404ZM38.2668 10.678H39.5268V18H38.2668V10.678ZM42.8901 18H41.6301V10.678H42.8901V11.672C43.1421 11.308 43.4547 11.028 43.8281 10.832C44.2107 10.636 44.6261 10.538 45.0741 10.538C45.8207 10.538 46.4134 10.776 46.8521 11.252C47.2907 11.728 47.5101 12.3673 47.5101 13.17V18H46.2501V13.506C46.2501 12.9273 46.1194 12.484 45.8581 12.176C45.5967 11.868 45.2187 11.714 44.7241 11.714C44.2201 11.714 43.7861 11.896 43.4221 12.26C43.0674 12.6147 42.8901 13.072 42.8901 13.632V18ZM52.4864 11.63C51.8238 11.63 51.2918 11.8773 50.8904 12.372C50.4891 12.8667 50.2884 13.5247 50.2884 14.346C50.2884 15.1673 50.4891 15.8253 50.8904 16.32C51.2918 16.8053 51.8238 17.048 52.4864 17.048C52.9531 17.048 53.3451 16.9127 53.6624 16.642C53.9798 16.3713 54.1944 15.9887 54.3064 15.494L55.4264 16.012C55.2398 16.6653 54.8804 17.188 54.3484 17.58C53.8258 17.9627 53.2051 18.154 52.4864 18.154C51.9731 18.154 51.4971 18.0607 51.0584 17.874C50.6198 17.678 50.2464 17.398 49.9384 17.034C49.6398 16.6887 49.4111 16.2873 49.2524 15.83C49.1031 15.3727 49.0284 14.878 49.0284 14.346C49.0284 13.814 49.1031 13.3193 49.2524 12.862C49.4111 12.4047 49.6398 12.0033 49.9384 11.658C50.2464 11.294 50.6198 11.0187 51.0584 10.832C51.4971 10.636 51.9731 10.538 52.4864 10.538C53.2051 10.538 53.8211 10.7293 54.3344 11.112C54.8571 11.4853 55.2118 11.994 55.3984 12.638L54.3064 13.184C54.1944 12.6893 53.9798 12.3067 53.6624 12.036C53.3451 11.7653 52.9531 11.63 52.4864 11.63ZM60.0959 10.622C60.1799 10.622 60.2639 10.6267 60.3479 10.636C60.4319 10.636 60.5159 10.6407 60.5999 10.65V11.924C60.4972 11.9053 60.3992 11.8913 60.3059 11.882C60.2125 11.8727 60.1052 11.868 59.9839 11.868C59.4332 11.868 58.9759 12.0687 58.6119 12.47C58.2479 12.862 58.0659 13.3707 58.0659 13.996V18H56.8059V10.678H58.0659V11.924C58.2432 11.5227 58.5092 11.2053 58.8639 10.972C59.2279 10.7387 59.6385 10.622 60.0959 10.622ZM67.1047 11.672C67.3941 12.008 67.6134 12.4047 67.7627 12.862C67.9121 13.3193 67.9867 13.814 67.9867 14.346C67.9867 14.878 67.9121 15.3727 67.7627 15.83C67.6134 16.2873 67.3941 16.684 67.1047 17.02C66.7967 17.384 66.4234 17.664 65.9847 17.86C65.5554 18.056 65.0887 18.154 64.5847 18.154C64.0807 18.154 63.6094 18.056 63.1707 17.86C62.7414 17.664 62.3727 17.384 62.0647 17.02C61.7754 16.684 61.5561 16.2873 61.4067 15.83C61.2574 15.3727 61.1827 14.878 61.1827 14.346C61.1827 13.814 61.2574 13.3193 61.4067 12.862C61.5561 12.4047 61.7754 12.008 62.0647 11.672C62.3727 11.308 62.7414 11.028 63.1707 10.832C63.6094 10.636 64.0807 10.538 64.5847 10.538C65.0887 10.538 65.5554 10.636 65.9847 10.832C66.4234 11.028 66.7967 11.308 67.1047 11.672ZM66.1247 12.344C65.7421 11.8493 65.2287 11.602 64.5847 11.602C63.9407 11.602 63.4227 11.8493 63.0307 12.344C62.6481 12.8387 62.4567 13.506 62.4567 14.346C62.4567 15.1767 62.6481 15.8393 63.0307 16.334C63.4227 16.8287 63.9407 17.076 64.5847 17.076C65.2287 17.076 65.7421 16.8287 66.1247 16.334C66.5167 15.8393 66.7127 15.1767 66.7127 14.346C66.7127 13.506 66.5167 12.8387 66.1247 12.344ZM70.8491 18H69.5891V10.678H70.8491V11.672C71.1011 11.308 71.4137 11.028 71.7871 10.832C72.1697 10.636 72.5851 10.538 73.0331 10.538C73.7797 10.538 74.3724 10.776 74.8111 11.252C75.2497 11.728 75.4691 12.3673 75.4691 13.17V18H74.2091V13.506C74.2091 12.9273 74.0784 12.484 73.8171 12.176C73.5557 11.868 73.1777 11.714 72.6831 11.714C72.1791 11.714 71.7451 11.896 71.3811 12.26C71.0264 12.6147 70.8491 13.072 70.8491 13.632V18ZM78.8074 9.404H77.4354V7.948H78.8074V9.404ZM77.4914 10.678H78.7514V18H77.4914V10.678ZM81.9607 16.922H86.1467V18H80.3787V17.048L84.6067 11.756H80.4347V10.678H86.1047V11.644L81.9607 16.922ZM88.8923 16.922H93.0783V18H87.3103V17.048L91.5383 11.756H87.3663V10.678H93.0363V11.644L88.8923 16.922ZM99.8729 12.624V16.404C99.8729 16.6747 99.8823 16.95 99.9009 17.23C99.9196 17.51 99.9476 17.7667 99.9849 18H98.7389C98.7296 17.916 98.7203 17.8227 98.7109 17.72C98.7016 17.608 98.6923 17.4493 98.6829 17.244C98.4496 17.5147 98.1369 17.7293 97.7449 17.888C97.3529 18.0467 96.9283 18.126 96.4709 18.126C95.7709 18.126 95.1923 17.93 94.7349 17.538C94.2776 17.146 94.0489 16.6373 94.0489 16.012C94.0489 15.3773 94.2683 14.8687 94.7069 14.486C95.1549 14.094 95.8643 13.8047 96.8349 13.618L98.6549 13.254V12.806C98.6549 12.4233 98.5289 12.134 98.2769 11.938C98.0249 11.742 97.6563 11.644 97.1709 11.644C96.6949 11.644 96.3216 11.7467 96.0509 11.952C95.7803 12.148 95.6216 12.442 95.5749 12.834H94.3429C94.3989 12.106 94.6836 11.5413 95.1969 11.14C95.7103 10.7387 96.3916 10.538 97.2409 10.538C98.0716 10.538 98.7156 10.72 99.1729 11.084C99.6396 11.448 99.8729 11.9613 99.8729 12.624ZM96.6389 17.104C97.1989 17.104 97.6749 16.95 98.0669 16.642C98.4589 16.334 98.6549 15.956 98.6549 15.508V14.234L97.1709 14.542C96.4709 14.682 95.9856 14.8593 95.7149 15.074C95.4443 15.2887 95.3089 15.5827 95.3089 15.956C95.3089 16.3107 95.4303 16.5907 95.6729 16.796C95.9156 17.0013 96.2376 17.104 96.6389 17.104ZM104.065 18.07C103.365 18.07 102.861 17.9253 102.553 17.636C102.255 17.3467 102.105 16.8847 102.105 16.25V11.756H100.971V10.678H102.105V8.536H103.351V10.678H105.017V11.756H103.351V16.054C103.351 16.3807 103.421 16.614 103.561 16.754C103.711 16.894 103.981 16.964 104.373 16.964C104.541 16.964 104.681 16.9593 104.793 16.95C104.915 16.9313 105.041 16.908 105.171 16.88V17.958C105.003 17.9953 104.826 18.0233 104.639 18.042C104.453 18.0607 104.261 18.07 104.065 18.07ZM112.044 11.672C112.334 12.008 112.553 12.4047 112.702 12.862C112.852 13.3193 112.926 13.814 112.926 14.346C112.926 14.878 112.852 15.3727 112.702 15.83C112.553 16.2873 112.334 16.684 112.044 17.02C111.736 17.384 111.363 17.664 110.924 17.86C110.495 18.056 110.028 18.154 109.524 18.154C109.02 18.154 108.549 18.056 108.11 17.86C107.681 17.664 107.312 17.384 107.004 17.02C106.715 16.684 106.496 16.2873 106.346 15.83C106.197 15.3727 106.122 14.878 106.122 14.346C106.122 13.814 106.197 13.3193 106.346 12.862C106.496 12.4047 106.715 12.008 107.004 11.672C107.312 11.308 107.681 11.028 108.11 10.832C108.549 10.636 109.02 10.538 109.524 10.538C110.028 10.538 110.495 10.636 110.924 10.832C111.363 11.028 111.736 11.308 112.044 11.672ZM111.064 12.344C110.682 11.8493 110.168 11.602 109.524 11.602C108.88 11.602 108.362 11.8493 107.97 12.344C107.588 12.8387 107.396 13.506 107.396 14.346C107.396 15.1767 107.588 15.8393 107.97 16.334C108.362 16.8287 108.88 17.076 109.524 17.076C110.168 17.076 110.682 16.8287 111.064 16.334C111.456 15.8393 111.652 15.1767 111.652 14.346C111.652 13.506 111.456 12.8387 111.064 12.344Z" fill="#323232"/>
</svg>
