<svg width="22" height="20" viewBox="0 0 22 20" fill="none" xmlns="http://www.w3.org/2000/svg">
<path d="M21 4.00001H11.618L9.9 0.553015C9.81656 0.386019 9.68803 0.245716 9.52897 0.147984C9.36992 0.0502529 9.18668 -0.00100412 9 1.49034e-05H1C0.734784 1.49034e-05 0.48043 0.105372 0.292893 0.292908C0.105357 0.480444 0 0.734798 0 1.00001V19C0 19.2652 0.105357 19.5196 0.292893 19.7071C0.48043 19.8947 0.734784 20 1 20H21C21.2652 20 21.5196 19.8947 21.7071 19.7071C21.8946 19.5196 22 19.2652 22 19V5.00001C22 4.7348 21.8946 4.48044 21.7071 4.29291C21.5196 4.10537 21.2652 4.00001 21 4.00001ZM2 2.00002H8.382L9.382 4.00001H2V2.00002ZM20 18H2V6.00001H20V18Z" fill="#323232"/>
</svg>
