<svg width="20" height="20" viewBox="0 0 20 20" fill="none" xmlns="http://www.w3.org/2000/svg">
<path d="M1.00024 20.0001C1.10761 19.9999 1.21427 19.9827 1.31624 19.9491L6.22624 18.3131C6.37311 18.2634 6.50656 18.1806 6.61624 18.0711L16.4342 8.25206L19.7072 4.98006C19.8947 4.79253 20 4.53823 20 4.27306C20 4.0079 19.8947 3.75359 19.7072 3.56606L16.4342 0.293061C16.2432 0.112389 15.9902 0.0117188 15.7272 0.0117188C15.4643 0.0117188 15.2113 0.112389 15.0202 0.293061L11.7482 3.56606L1.92924 13.3841C1.81979 13.4936 1.73729 13.6272 1.68824 13.7741L0.0512411 18.6841C0.00117028 18.8344 -0.0124602 18.9945 0.0114734 19.1511C0.0354069 19.3077 0.0962191 19.4564 0.188899 19.585C0.281578 19.7135 0.403471 19.8181 0.544534 19.8903C0.685596 19.9625 0.841789 20.0001 1.00024 20.0001ZM15.7272 2.41406L17.5862 4.27306L15.7272 6.13106L13.8692 4.27306L15.7272 2.41406ZM3.51024 14.6311L12.4552 5.68706L14.3132 7.54506L5.36924 16.4901L2.58124 17.4191L3.51024 14.6311Z" fill="#323232"/>
</svg>
