<svg width="240" height="80" viewBox="0 0 240 80" fill="none"
    xmlns="http://www.w3.org/2000/svg">
    <path d="M0 0H240V68C240 74.6274 234.627 80 228 80H0V0Z" fill="#E22623"/>
<path d="M30.688 51.08C31.84 52.328 33.984 53.352 36.8 53.352C42.56 53.352 45.92 49.384 45.92 44.584C45.92 39.752 42.56 35.784 36.8 35.784C33.984 35.784 31.84 36.84 30.688 38.056V36.136H25.568V58.632H30.688V51.08ZM30.528 44.488C30.528 41.832 32.8 39.912 35.744 39.912C38.56 39.912 40.928 41.576 40.928 44.584C40.928 47.592 38.56 49.224 35.744 49.224C32.8 49.224 30.528 47.336 30.528 44.68V44.488ZM48.1298 34.408H53.3458V30.024H48.1298V34.408ZM53.2818 36.136H48.1618V53H53.2818V36.136ZM56.443 53H61.563V44.776C61.563 41.96 62.971 40.328 65.659 40.328C68.219 40.328 69.403 41.992 69.403 44.744V53H74.523V44.776C74.523 41.96 75.931 40.328 78.619 40.328C81.179 40.328 82.363 41.992 82.363 44.744V53H87.483V43.496C87.483 38.728 84.667 35.784 79.931 35.784C76.795 35.784 74.683 37.032 73.211 38.696C72.027 36.84 69.819 35.784 67.323 35.784C64.699 35.784 62.843 36.744 61.563 38.152V36.136H56.443V53Z" fill="white"/>
</svg>
