<svg width="22" height="18" viewBox="0 0 22 18" fill="none" xmlns="http://www.w3.org/2000/svg">
<path d="M21.371 1.03415C18.031 -0.301854 14.364 -0.335854 11 0.906146C7.635 -0.335854 3.97 -0.301854 0.628 1.03415C0.249 1.18715 0 1.55415 0 1.96315V17.0001C0 17.3321 0.165 17.6421 0.439 17.8281C0.713 18.0131 1.063 18.0521 1.371 17.9291C4.355 16.7341 7.643 16.7341 10.628 17.9291C10.633 17.9311 10.638 17.9301 10.642 17.9321C10.745 17.9711 10.853 17.9891 10.962 17.9931C10.976 17.9931 10.988 18.0001 11 18.0001C11.019 18.0001 11.036 17.9931 11.055 17.9921C11.115 17.9891 11.173 17.9801 11.231 17.9661C11.262 17.9591 11.292 17.9521 11.322 17.9421C11.338 17.9371 11.355 17.9351 11.371 17.9291C14.357 16.7341 17.642 16.7341 20.628 17.9291C20.748 17.9771 20.874 18.0001 21 18.0001C21.197 18.0001 21.393 17.9411 21.561 17.8281C21.835 17.6421 22 17.3321 22 17.0001V1.96315C22 1.55415 21.751 1.18715 21.371 1.03415ZM10 15.6001C8.69 15.2221 7.345 15.0331 6 15.0331C4.655 15.0331 3.31 15.2221 2 15.6001V2.65915C4.603 1.77415 7.397 1.77415 10 2.65915V15.6001ZM20 15.6011C18.69 15.2221 17.345 15.0331 16 15.0331C14.655 15.0331 13.31 15.2221 12 15.6011V2.65915C14.602 1.77415 17.398 1.77415 20 2.65915V15.6011Z" fill="#323232"/>
</svg>
